# xmcd CD database file
#
# Track frame offsets:
#	150
#	23925
#	46442
#	62940
#
# Disc length: 1141 seconds
#
# Revision: 0
# Processed by: cddbd v1.5.2PL0 Copyright (c) Steve Scherf et al.
# Submitted via: CDex 1.51
#
DISCID=33047304
DTITLE=12 Cellisten der Berliner Philharmoniker und Till Brönner - 'Round Midnight
DYEAR=1900
DGENRE=Jazz
TTITLE0='Round Midnight
TTITLE1=Caravan
TTITLE2=Moonlight Serensde
TTITLE3=Prelude No. 2
EXTD=
EXTT0=
EXTT1=
EXTT2=
EXTT3=
PLAYORDER=
